<svg xmlns="http://www.w3.org/2000/svg" viewBox="0 0 800 450">
  <defs>
    <linearGradient id="bgGrad" x1="0%" y1="0%" x2="100%" y2="100%">
      <stop offset="0%" style="stop-color:#1a1a2e"/>
      <stop offset="100%" style="stop-color:#16213e"/>
    </linearGradient>
    <linearGradient id="s1G" x1="0%" y1="0%" x2="0%" y2="100%">
      <stop offset="0%" style="stop-color:#e94560"/>
      <stop offset="100%" style="stop-color:#c23152"/>
    </linearGradient>
    <linearGradient id="s2G" x1="0%" y1="0%" x2="0%" y2="100%">
      <stop offset="0%" style="stop-color:#f97316"/>
      <stop offset="100%" style="stop-color:#ea580c"/>
    </linearGradient>
    <linearGradient id="s3G" x1="0%" y1="0%" x2="0%" y2="100%">
      <stop offset="0%" style="stop-color:#eab308"/>
      <stop offset="100%" style="stop-color:#ca8a04"/>
    </linearGradient>
    <linearGradient id="s4G" x1="0%" y1="0%" x2="0%" y2="100%">
      <stop offset="0%" style="stop-color:#3b82f6"/>
      <stop offset="100%" style="stop-color:#2563eb"/>
    </linearGradient>
    <linearGradient id="s5G" x1="0%" y1="0%" x2="0%" y2="100%">
      <stop offset="0%" style="stop-color:#8b5cf6"/>
      <stop offset="100%" style="stop-color:#7c3aed"/>
    </linearGradient>
    <linearGradient id="s6G" x1="0%" y1="0%" x2="0%" y2="100%">
      <stop offset="0%" style="stop-color:#10b981"/>
      <stop offset="100%" style="stop-color:#059669"/>
    </linearGradient>
    <linearGradient id="tG" x1="0%" y1="0%" x2="100%" y2="0%">
      <stop offset="0%" style="stop-color:#e94560"/>
      <stop offset="50%" style="stop-color:#8b5cf6"/>
      <stop offset="100%" style="stop-color:#10b981"/>
    </linearGradient>
    <marker id="aR" markerWidth="10" markerHeight="7" refX="9" refY="3.5" orient="auto">
      <polygon points="0 0, 10 3.5, 0 7" fill="#64748b"/>
    </marker>
    <marker id="aD" markerWidth="7" markerHeight="10" refX="3.5" refY="9" orient="auto">
      <polygon points="0 0, 7 0, 3.5 10" fill="#64748b"/>
    </marker>
    <marker id="aL" markerWidth="10" markerHeight="7" refX="1" refY="3.5" orient="auto">
      <polygon points="10 0, 0 3.5, 10 7" fill="#64748b"/>
    </marker>
    <filter id="glow">
      <feGaussianBlur stdDeviation="2" result="coloredBlur"/>
      <feMerge><feMergeNode in="coloredBlur"/><feMergeNode in="SourceGraphic"/></feMerge>
    </filter>
    <filter id="shadow">
      <feDropShadow dx="0" dy="2" stdDeviation="3" flood-color="#000" flood-opacity="0.3"/>
    </filter>
  </defs>

  <rect width="800" height="450" rx="12" fill="url(#bgGrad)"/>
  <circle cx="750" cy="50" r="80" fill="#e94560" opacity="0.03"/>
  <circle cx="50" cy="400" r="100" fill="#8b5cf6" opacity="0.03"/>
  <circle cx="400" cy="225" r="200" fill="#3b82f6" opacity="0.02"/>

  <text x="400" y="38" text-anchor="middle" font-family="Segoe UI, Arial, sans-serif" font-size="18" font-weight="700" fill="url(#tG)">Claude Code 플러그인 설치 흐름</text>
  <line x1="200" y1="48" x2="600" y2="48" stroke="#64748b" stroke-width="0.5" opacity="0.4"/>
  <g filter="url(#shadow)"><rect x="30" y="70" width="210" height="95" rx="10" fill="#1e293b" stroke="url(#s1G)" stroke-width="1.5"/></g>
  <rect x="30" y="70" width="210" height="4" rx="2" fill="url(#s1G)"/>
  <circle cx="56" cy="95" r="12" fill="url(#s1G)" opacity="0.9"/>
  <text x="56" y="99" text-anchor="middle" font-family="Segoe UI, Arial, sans-serif" font-size="10" font-weight="700" fill="#fff">1</text>
  <text x="76" y="99" font-family="Segoe UI, Arial, sans-serif" font-size="13" font-weight="600" fill="#f1f5f9">마켓플레이스 추가</text>
  <text x="135" y="120" text-anchor="middle" font-family="Segoe UI, monospace" font-size="10" fill="#94a3b8">claude plugin add</text>
  <text x="135" y="138" text-anchor="middle" font-family="Segoe UI, monospace" font-size="9" fill="#64748b">&lt;registry-url&gt;</text>
  <circle cx="205" cy="132" r="14" fill="none" stroke="#e94560" stroke-width="1" opacity="0.5"/>
  <line x1="199" y1="132" x2="211" y2="132" stroke="#e94560" stroke-width="1.5" opacity="0.7"/>
  <line x1="205" y1="126" x2="205" y2="138" stroke="#e94560" stroke-width="1.5" opacity="0.7"/>

  <line x1="245" y1="118" x2="287" y2="118" stroke="#64748b" stroke-width="1.2" marker-end="url(#aR)" opacity="0.6"/>

  <g filter="url(#shadow)"><rect x="295" y="70" width="210" height="95" rx="10" fill="#1e293b" stroke="url(#s2G)" stroke-width="1.5"/></g>
  <rect x="295" y="70" width="210" height="4" rx="2" fill="url(#s2G)"/>
  <circle cx="321" cy="95" r="12" fill="url(#s2G)" opacity="0.9"/>
  <text x="321" y="99" text-anchor="middle" font-family="Segoe UI, Arial, sans-serif" font-size="10" font-weight="700" fill="#fff">2</text>
  <text x="341" y="99" font-family="Segoe UI, Arial, sans-serif" font-size="13" font-weight="600" fill="#f1f5f9">플러그인 검색</text>
  <text x="400" y="120" text-anchor="middle" font-family="Segoe UI, Arial, sans-serif" font-size="10" fill="#94a3b8">Discover 탭에서 탐색</text>
  <circle cx="469" cy="126" r="9" fill="none" stroke="#f97316" stroke-width="1.2" opacity="0.6"/>
  <line x1="476" y1="133" x2="482" y2="139" stroke="#f97316" stroke-width="1.5" opacity="0.6"/>
  <rect x="316" y="137" width="50" height="16" rx="8" fill="#f97316" opacity="0.15"/>
  <text x="341" y="148" text-anchor="middle" font-family="Segoe UI, Arial, sans-serif" font-size="8" fill="#f97316">Skills</text>
  <rect x="372" y="137" width="50" height="16" rx="8" fill="#f97316" opacity="0.15"/>
  <text x="397" y="148" text-anchor="middle" font-family="Segoe UI, Arial, sans-serif" font-size="8" fill="#f97316">MCP</text>
  <rect x="428" y="137" width="50" height="16" rx="8" fill="#f97316" opacity="0.15"/>
  <text x="453" y="148" text-anchor="middle" font-family="Segoe UI, Arial, sans-serif" font-size="8" fill="#f97316">Hooks</text>
  <line x1="510" y1="118" x2="552" y2="118" stroke="#64748b" stroke-width="1.2" marker-end="url(#aR)" opacity="0.6"/>

  <g filter="url(#shadow)"><rect x="560" y="70" width="210" height="95" rx="10" fill="#1e293b" stroke="url(#s3G)" stroke-width="1.5"/></g>
  <rect x="560" y="70" width="210" height="4" rx="2" fill="url(#s3G)"/>
  <circle cx="586" cy="95" r="12" fill="url(#s3G)" opacity="0.9"/>
  <text x="586" y="99" text-anchor="middle" font-family="Segoe UI, Arial, sans-serif" font-size="10" font-weight="700" fill="#1e293b">3</text>
  <text x="606" y="99" font-family="Segoe UI, Arial, sans-serif" font-size="13" font-weight="600" fill="#f1f5f9">스코프 선택(Scope)</text>
  <text x="665" y="118" text-anchor="middle" font-family="Segoe UI, Arial, sans-serif" font-size="10" fill="#94a3b8">설치 범위 지정</text>
  <rect x="580" y="130" width="52" height="22" rx="4" fill="#eab308" opacity="0.12" stroke="#eab308" stroke-width="0.5"/>
  <text x="606" y="145" text-anchor="middle" font-family="Segoe UI, monospace" font-size="9" font-weight="600" fill="#eab308">User</text>
  <rect x="639" y="130" width="58" height="22" rx="4" fill="#eab308" opacity="0.12" stroke="#eab308" stroke-width="0.5"/>
  <text x="668" y="145" text-anchor="middle" font-family="Segoe UI, monospace" font-size="9" font-weight="600" fill="#eab308">Project</text>
  <rect x="704" y="130" width="52" height="22" rx="4" fill="#eab308" opacity="0.12" stroke="#eab308" stroke-width="0.5"/>
  <text x="730" y="145" text-anchor="middle" font-family="Segoe UI, monospace" font-size="9" font-weight="600" fill="#eab308">Local</text>

  <line x1="665" y1="170" x2="665" y2="200" stroke="#64748b" stroke-width="1.2" marker-end="url(#aD)" opacity="0.6"/>

  <g filter="url(#shadow)"><rect x="560" y="212" width="210" height="90" rx="10" fill="#1e293b" stroke="url(#s4G)" stroke-width="1.5"/></g>
  <rect x="560" y="298" width="210" height="4" rx="2" fill="url(#s4G)"/>
  <circle cx="586" cy="234" r="12" fill="url(#s4G)" opacity="0.9"/>
  <text x="586" y="238" text-anchor="middle" font-family="Segoe UI, Arial, sans-serif" font-size="10" font-weight="700" fill="#fff">4</text>
  <text x="606" y="237" font-family="Segoe UI, Arial, sans-serif" font-size="13" font-weight="600" fill="#f1f5f9">캐시에 복사</text>
  <text x="665" y="258" text-anchor="middle" font-family="Segoe UI, monospace" font-size="9" fill="#94a3b8">~/.claude/plugins/cache/</text>
  <rect x="632" y="270" width="66" height="18" rx="3" fill="#3b82f6" opacity="0.12"/>
  <text x="665" y="283" text-anchor="middle" font-family="Segoe UI, Arial, sans-serif" font-size="9" fill="#60a5fa">로컬 저장</text>
  <line x1="555" y1="257" x2="518" y2="257" stroke="#64748b" stroke-width="1.2" marker-end="url(#aL)" opacity="0.6"/>

  <g filter="url(#shadow)"><rect x="170" y="212" width="340" height="120" rx="10" fill="#1e293b" stroke="url(#s5G)" stroke-width="1.5"/></g>
  <rect x="170" y="328" width="340" height="4" rx="2" fill="url(#s5G)"/>
  <circle cx="196" cy="234" r="12" fill="url(#s5G)" opacity="0.9"/>
  <text x="196" y="238" text-anchor="middle" font-family="Segoe UI, Arial, sans-serif" font-size="10" font-weight="700" fill="#fff">5</text>
  <text x="216" y="237" font-family="Segoe UI, Arial, sans-serif" font-size="13" font-weight="600" fill="#f1f5f9">컴포넌트 로드</text>
  <text x="340" y="258" text-anchor="middle" font-family="Segoe UI, Arial, sans-serif" font-size="10" fill="#94a3b8">플러그인 구성 요소 활성화</text>

  <rect x="190" y="272" width="72" height="42" rx="6" fill="#e94560" opacity="0.1" stroke="#e94560" stroke-width="0.8"/>
  <text x="226" y="290" text-anchor="middle" font-family="Segoe UI, Arial, sans-serif" font-size="11" font-weight="600" fill="#e94560">Skills</text>
  <text x="226" y="305" text-anchor="middle" font-family="Segoe UI, Arial, sans-serif" font-size="8" fill="#94a3b8">스킬</text>

  <rect x="272" y="272" width="72" height="42" rx="6" fill="#f97316" opacity="0.1" stroke="#f97316" stroke-width="0.8"/>
  <text x="308" y="290" text-anchor="middle" font-family="Segoe UI, Arial, sans-serif" font-size="11" font-weight="600" fill="#f97316">Agents</text>
  <text x="308" y="305" text-anchor="middle" font-family="Segoe UI, Arial, sans-serif" font-size="8" fill="#94a3b8">에이전트</text>

  <rect x="354" y="272" width="72" height="42" rx="6" fill="#eab308" opacity="0.1" stroke="#eab308" stroke-width="0.8"/>
  <text x="390" y="290" text-anchor="middle" font-family="Segoe UI, Arial, sans-serif" font-size="11" font-weight="600" fill="#eab308">Hooks</text>
  <text x="390" y="305" text-anchor="middle" font-family="Segoe UI, Arial, sans-serif" font-size="8" fill="#94a3b8">훅</text>

  <rect x="436" y="272" width="32" height="42" rx="6" fill="#3b82f6" opacity="0.1" stroke="#3b82f6" stroke-width="0.8"/>
  <text x="452" y="298" text-anchor="middle" font-family="Segoe UI, Arial, sans-serif" font-size="9" font-weight="600" fill="#3b82f6">MCP</text>

  <rect x="476" y="272" width="26" height="42" rx="6" fill="#8b5cf6" opacity="0.1" stroke="#8b5cf6" stroke-width="0.8"/>
  <text x="489" y="298" text-anchor="middle" font-family="Segoe UI, Arial, sans-serif" font-size="9" font-weight="600" fill="#8b5cf6">LSP</text>
  <line x1="165" y1="272" x2="157" y2="272" stroke="#64748b" stroke-width="1.2" marker-end="url(#aL)" opacity="0.6"/>

  <g filter="url(#shadow)"><rect x="30" y="232" width="122" height="80" rx="10" fill="#1e293b" stroke="url(#s6G)" stroke-width="2"/></g>
  <rect x="30" y="232" width="122" height="4" rx="2" fill="url(#s6G)"/>
  <circle cx="56" cy="256" r="12" fill="url(#s6G)" opacity="0.9"/>
  <text x="56" y="260" text-anchor="middle" font-family="Segoe UI, Arial, sans-serif" font-size="10" font-weight="700" fill="#fff">6</text>
  <text x="100" y="260" text-anchor="middle" font-family="Segoe UI, Arial, sans-serif" font-size="13" font-weight="600" fill="#f1f5f9">사용 가능</text>
  <circle cx="91" cy="288" r="13" fill="#10b981" opacity="0.15"/>
  <polyline points="83,288 89,294 100,282" fill="none" stroke="#10b981" stroke-width="2.2" stroke-linecap="round" stroke-linejoin="round" filter="url(#glow)"/>

  <line x1="30" y1="352" x2="770" y2="352" stroke="#64748b" stroke-width="0.3" opacity="0.3"/>
  <text x="400" y="375" text-anchor="middle" font-family="Segoe UI, Arial, sans-serif" font-size="10" fill="#64748b" font-weight="600">컴포넌트 설명</text>

  <circle cx="95" cy="398" r="4" fill="#e94560"/>
  <text x="105" y="402" font-family="Segoe UI, Arial, sans-serif" font-size="9" fill="#94a3b8">Skills - 명령어/워크플로우</text>

  <circle cx="260" cy="398" r="4" fill="#f97316"/>
  <text x="270" y="402" font-family="Segoe UI, Arial, sans-serif" font-size="9" fill="#94a3b8">Agents - 서브 에이전트</text>

  <circle cx="420" cy="398" r="4" fill="#eab308"/>
  <text x="430" y="402" font-family="Segoe UI, Arial, sans-serif" font-size="9" fill="#94a3b8">Hooks - 이벤트 훅</text>

  <circle cx="555" cy="398" r="4" fill="#3b82f6"/>
  <text x="565" y="402" font-family="Segoe UI, Arial, sans-serif" font-size="9" fill="#94a3b8">MCP - 도구 서버</text>

  <circle cx="665" cy="398" r="4" fill="#8b5cf6"/>
  <text x="675" y="402" font-family="Segoe UI, Arial, sans-serif" font-size="9" fill="#94a3b8">LSP - 언어 서버</text>

  <text x="400" y="432" text-anchor="middle" font-family="Segoe UI, monospace" font-size="8" fill="#475569">plugin add → discover → scope select → cache copy → component load → ready</text>
</svg>