<svg xmlns="http://www.w3.org/2000/svg" viewBox="0 0 860 580" font-family="Arial, sans-serif">
  <defs>
    <!-- 파랑 (HNSW) -->
    <linearGradient id="nodeBlue" x1="0%" y1="0%" x2="0%" y2="100%">
      <stop offset="0%" style="stop-color:#3498DB"/>
      <stop offset="100%" style="stop-color:#2980B9"/>
    </linearGradient>
    <!-- 초록 (IVF) -->
    <linearGradient id="nodeGreen" x1="0%" y1="0%" x2="0%" y2="100%">
      <stop offset="0%" style="stop-color:#2ECC71"/>
      <stop offset="100%" style="stop-color:#27AE60"/>
    </linearGradient>
    <!-- 주황 (PQ) -->
    <linearGradient id="nodeOrange" x1="0%" y1="0%" x2="0%" y2="100%">
      <stop offset="0%" style="stop-color:#E67E22"/>
      <stop offset="100%" style="stop-color:#D35400"/>
    </linearGradient>
    <!-- 빨강 (Flat) -->
    <linearGradient id="nodeRed" x1="0%" y1="0%" x2="0%" y2="100%">
      <stop offset="0%" style="stop-color:#E74C3C"/>
      <stop offset="100%" style="stop-color:#C0392B"/>
    </linearGradient>
    <!-- 보라 (헤더) -->
    <linearGradient id="nodePurple" x1="0%" y1="0%" x2="0%" y2="100%">
      <stop offset="0%" style="stop-color:#9B59B6"/>
      <stop offset="100%" style="stop-color:#8E44AD"/>
    </linearGradient>
    <!-- 연한 배경 그라디언트 -->
    <linearGradient id="bgBlue" x1="0%" y1="0%" x2="0%" y2="100%">
      <stop offset="0%" style="stop-color:#EBF5FB"/>
      <stop offset="100%" style="stop-color:#D6EAF8"/>
    </linearGradient>
    <linearGradient id="bgGreen" x1="0%" y1="0%" x2="0%" y2="100%">
      <stop offset="0%" style="stop-color:#E9F7EF"/>
      <stop offset="100%" style="stop-color:#D5F5E3"/>
    </linearGradient>
    <linearGradient id="bgOrange" x1="0%" y1="0%" x2="0%" y2="100%">
      <stop offset="0%" style="stop-color:#FEF9E7"/>
      <stop offset="100%" style="stop-color:#FDEBD0"/>
    </linearGradient>
    <linearGradient id="bgRed" x1="0%" y1="0%" x2="0%" y2="100%">
      <stop offset="0%" style="stop-color:#FDEDEC"/>
      <stop offset="100%" style="stop-color:#FADBD8"/>
    </linearGradient>
  </defs>

  <!-- 전체 배경 -->
  <rect width="860" height="580" fill="#F8F9FA" rx="10"/>

  <!-- 제목 -->
  <rect x="20" y="16" width="820" height="44" fill="url(#nodePurple)" rx="8"/>
  <text x="430" y="44" text-anchor="middle" font-size="16" font-weight="bold" fill="white">ANN (Approximate Nearest Neighbor) 알고리즘 비교</text>

  <!-- ===================== 상단: 알고리즘 카드 4개 ===================== -->

  <!-- HNSW 카드 -->
  <rect x="20" y="76" width="195" height="200" fill="url(#bgBlue)" rx="8" stroke="#3498DB" stroke-width="1.5"/>
  <rect x="20" y="76" width="195" height="34" fill="url(#nodeBlue)" rx="8"/>
  <rect x="20" y="96" width="195" height="14" fill="url(#nodeBlue)"/>
  <text x="117" y="98" text-anchor="middle" font-size="13" font-weight="bold" fill="white">HNSW</text>
  <text x="117" y="120" text-anchor="middle" font-size="10" fill="white">Hierarchical Navigable Small World</text>

  <!-- HNSW 구조 시각화: 다층 그래프 -->
  <text x="117" y="150" text-anchor="middle" font-size="10" fill="#2C3E50" font-weight="bold">다층 그래프 구조</text>
  <!-- Layer 2 (희소) -->
  <text x="35" y="168" font-size="9" fill="#7F8C8D">Layer 2</text>
  <circle cx="80" cy="165" r="7" fill="url(#nodeBlue)" opacity="0.9"/>
  <circle cx="140" cy="165" r="7" fill="url(#nodeBlue)" opacity="0.9"/>
  <line x1="87" y1="165" x2="133" y2="165" stroke="#2980B9" stroke-width="1.5"/>
  <!-- Layer 1 (중간) -->
  <text x="35" y="192" font-size="9" fill="#7F8C8D">Layer 1</text>
  <circle cx="70" cy="188" r="7" fill="url(#nodeBlue)" opacity="0.8"/>
  <circle cx="110" cy="188" r="7" fill="url(#nodeBlue)" opacity="0.8"/>
  <circle cx="150" cy="188" r="7" fill="url(#nodeBlue)" opacity="0.8"/>
  <line x1="77" y1="188" x2="103" y2="188" stroke="#2980B9" stroke-width="1.2"/>
  <line x1="117" y1="188" x2="143" y2="188" stroke="#2980B9" stroke-width="1.2"/>
  <!-- Layer 0 (밀집) -->
  <text x="35" y="215" font-size="9" fill="#7F8C8D">Layer 0</text>
  <circle cx="60" cy="211" r="6" fill="url(#nodeBlue)" opacity="0.7"/>
  <circle cx="85" cy="211" r="6" fill="url(#nodeBlue)" opacity="0.7"/>
  <circle cx="110" cy="211" r="6" fill="url(#nodeBlue)" opacity="0.7"/>
  <circle cx="135" cy="211" r="6" fill="url(#nodeBlue)" opacity="0.7"/>
  <circle cx="160" cy="211" r="6" fill="url(#nodeBlue)" opacity="0.7"/>
  <line x1="66" y1="211" x2="79" y2="211" stroke="#2980B9" stroke-width="1"/>
  <line x1="91" y1="211" x2="104" y2="211" stroke="#2980B9" stroke-width="1"/>
  <line x1="116" y1="211" x2="129" y2="211" stroke="#2980B9" stroke-width="1"/>
  <line x1="141" y1="211" x2="154" y2="211" stroke="#2980B9" stroke-width="1"/>
  <!-- 층간 연결 점선 -->
  <line x1="80" y1="172" x2="80" y2="181" stroke="#2980B9" stroke-width="1" stroke-dasharray="2,2"/>
  <line x1="140" y1="172" x2="140" y2="181" stroke="#2980B9" stroke-width="1" stroke-dasharray="2,2"/>
  <!-- 특성 태그 -->
  <rect x="30" y="228" width="175" height="40" fill="white" rx="5" opacity="0.8"/>
  <text x="117" y="242" text-anchor="middle" font-size="9" fill="#2C3E50">상위 레이어: 빠른 탐색 (희소)</text>
  <text x="117" y="256" text-anchor="middle" font-size="9" fill="#2C3E50">하위 레이어: 정밀 탐색 (밀집)</text>

  <!-- IVF 카드 -->
  <rect x="225" y="76" width="195" height="200" fill="url(#bgGreen)" rx="8" stroke="#2ECC71" stroke-width="1.5"/>
  <rect x="225" y="76" width="195" height="34" fill="url(#nodeGreen)" rx="8"/>
  <rect x="225" y="96" width="195" height="14" fill="url(#nodeGreen)"/>
  <text x="322" y="98" text-anchor="middle" font-size="13" font-weight="bold" fill="white">IVF</text>
  <text x="322" y="120" text-anchor="middle" font-size="10" fill="white">Inverted File Index</text>

  <!-- IVF 구조 시각화: 클러스터 -->
  <text x="322" y="150" text-anchor="middle" font-size="10" fill="#2C3E50" font-weight="bold">클러스터 기반 구조</text>
  <!-- 클러스터 1 -->
  <circle cx="270" cy="180" r="28" fill="none" stroke="#27AE60" stroke-width="1.5" stroke-dasharray="4,2"/>
  <circle cx="270" cy="180" r="6" fill="url(#nodeGreen)"/>
  <text x="270" y="216" text-anchor="middle" font-size="8" fill="#27AE60">C1</text>
  <circle cx="255" cy="172" r="4" fill="#27AE60" opacity="0.6"/>
  <circle cx="283" cy="170" r="4" fill="#27AE60" opacity="0.6"/>
  <circle cx="260" cy="190" r="4" fill="#27AE60" opacity="0.6"/>
  <circle cx="280" cy="188" r="4" fill="#27AE60" opacity="0.6"/>
  <!-- 클러스터 2 -->
  <circle cx="325" cy="175" r="28" fill="none" stroke="#27AE60" stroke-width="1.5" stroke-dasharray="4,2"/>
  <circle cx="325" cy="175" r="6" fill="url(#nodeGreen)"/>
  <text x="325" y="211" text-anchor="middle" font-size="8" fill="#27AE60">C2</text>
  <circle cx="312" cy="167" r="4" fill="#27AE60" opacity="0.6"/>
  <circle cx="338" cy="165" r="4" fill="#27AE60" opacity="0.6"/>
  <circle cx="315" cy="183" r="4" fill="#27AE60" opacity="0.6"/>
  <circle cx="336" cy="182" r="4" fill="#27AE60" opacity="0.6"/>
  <!-- 클러스터 3 -->
  <circle cx="375" cy="185" r="25" fill="none" stroke="#27AE60" stroke-width="1.5" stroke-dasharray="4,2"/>
  <circle cx="375" cy="185" r="6" fill="url(#nodeGreen)"/>
  <text x="375" y="218" text-anchor="middle" font-size="8" fill="#27AE60">C3</text>
  <circle cx="363" cy="178" r="4" fill="#27AE60" opacity="0.6"/>
  <circle cx="385" cy="176" r="4" fill="#27AE60" opacity="0.6"/>
  <circle cx="368" cy="193" r="4" fill="#27AE60" opacity="0.6"/>
  <!-- 특성 태그 -->
  <rect x="235" y="228" width="175" height="40" fill="white" rx="5" opacity="0.8"/>
  <text x="322" y="242" text-anchor="middle" font-size="9" fill="#2C3E50">쿼리 근처 클러스터만 탐색</text>
  <text x="322" y="256" text-anchor="middle" font-size="9" fill="#2C3E50">전수검색 대비 빠른 속도</text>

  <!-- PQ 카드 -->
  <rect x="430" y="76" width="195" height="200" fill="url(#bgOrange)" rx="8" stroke="#E67E22" stroke-width="1.5"/>
  <rect x="430" y="76" width="195" height="34" fill="url(#nodeOrange)" rx="8"/>
  <rect x="430" y="96" width="195" height="14" fill="url(#nodeOrange)"/>
  <text x="527" y="98" text-anchor="middle" font-size="13" font-weight="bold" fill="white">PQ</text>
  <text x="527" y="120" text-anchor="middle" font-size="10" fill="white">Product Quantization</text>

  <!-- PQ 구조 시각화: 벡터 분할 및 코드북 -->
  <text x="527" y="150" text-anchor="middle" font-size="10" fill="#2C3E50" font-weight="bold">벡터 양자화 압축</text>
  <!-- 원본 벡터 -->
  <text x="447" y="168" font-size="9" fill="#7F8C8D">원본 벡터</text>
  <rect x="447" y="172" width="35" height="18" fill="#E67E22" opacity="0.8" rx="3"/>
  <rect x="484" y="172" width="35" height="18" fill="#D35400" opacity="0.8" rx="3"/>
  <rect x="521" y="172" width="35" height="18" fill="#E67E22" opacity="0.8" rx="3"/>
  <rect x="558" y="172" width="35" height="18" fill="#D35400" opacity="0.8" rx="3"/>
  <text x="464" y="185" text-anchor="middle" font-size="8" fill="white">v1</text>
  <text x="501" y="185" text-anchor="middle" font-size="8" fill="white">v2</text>
  <text x="538" y="185" text-anchor="middle" font-size="8" fill="white">v3</text>
  <text x="575" y="185" text-anchor="middle" font-size="8" fill="white">v4</text>
  <!-- 화살표 -->
  <line x1="527" y1="193" x2="527" y2="203" stroke="#D35400" stroke-width="1.5" marker-end="url(#arrowOrange)"/>
  <!-- 코드북 -->
  <text x="447" y="217" font-size="9" fill="#7F8C8D">코드북 인덱스</text>
  <rect x="447" y="221" width="25" height="18" fill="#ECF0F1" rx="3" stroke="#E67E22" stroke-width="1"/>
  <rect x="476" y="221" width="25" height="18" fill="#ECF0F1" rx="3" stroke="#E67E22" stroke-width="1"/>
  <rect x="505" y="221" width="25" height="18" fill="#ECF0F1" rx="3" stroke="#E67E22" stroke-width="1"/>
  <rect x="534" y="221" width="25" height="18" fill="#ECF0F1" rx="3" stroke="#E67E22" stroke-width="1"/>
  <text x="459" y="234" text-anchor="middle" font-size="9" fill="#2C3E50">3</text>
  <text x="488" y="234" text-anchor="middle" font-size="9" fill="#2C3E50">7</text>
  <text x="517" y="234" text-anchor="middle" font-size="9" fill="#2C3E50">1</text>
  <text x="546" y="234" text-anchor="middle" font-size="9" fill="#2C3E50">5</text>
  <!-- 특성 태그 -->
  <rect x="440" y="248" width="175" height="20" fill="white" rx="5" opacity="0.8"/>
  <text x="527" y="262" text-anchor="middle" font-size="9" fill="#2C3E50">32x 이상 압축 / 정확도 손실 발생</text>

  <!-- Flat 카드 -->
  <rect x="635" y="76" width="205" height="200" fill="url(#bgRed)" rx="8" stroke="#E74C3C" stroke-width="1.5"/>
  <rect x="635" y="76" width="205" height="34" fill="url(#nodeRed)" rx="8"/>
  <rect x="635" y="96" width="205" height="14" fill="url(#nodeRed)"/>
  <text x="737" y="98" text-anchor="middle" font-size="13" font-weight="bold" fill="white">Flat</text>
  <text x="737" y="120" text-anchor="middle" font-size="10" fill="white">Brute Force (전수 검색)</text>

  <!-- Flat 구조 시각화: 모든 벡터 비교 -->
  <text x="737" y="150" text-anchor="middle" font-size="10" fill="#2C3E50" font-weight="bold">전체 탐색 구조</text>
  <!-- 쿼리 벡터 -->
  <circle cx="737" cy="175" r="12" fill="url(#nodeRed)"/>
  <text x="737" y="179" text-anchor="middle" font-size="9" fill="white" font-weight="bold">Q</text>
  <!-- 데이터 벡터들 -->
  <circle cx="672" cy="165" r="7" fill="#E74C3C" opacity="0.7"/>
  <circle cx="695" cy="195" r="7" fill="#E74C3C" opacity="0.7"/>
  <circle cx="668" cy="205" r="7" fill="#E74C3C" opacity="0.7"/>
  <circle cx="770" cy="160" r="7" fill="#E74C3C" opacity="0.7"/>
  <circle cx="790" cy="190" r="7" fill="#E74C3C" opacity="0.7"/>
  <circle cx="775" cy="210" r="7" fill="#E74C3C" opacity="0.7"/>
  <circle cx="712" cy="158" r="7" fill="#E74C3C" opacity="0.7"/>
  <circle cx="760" cy="215" r="7" fill="#E74C3C" opacity="0.7"/>
  <!-- 모든 연결선 -->
  <line x1="728" y1="168" x2="679" y2="167" stroke="#C0392B" stroke-width="1" opacity="0.6"/>
  <line x1="728" y1="172" x2="702" y2="192" stroke="#C0392B" stroke-width="1" opacity="0.6"/>
  <line x1="727" y1="174" x2="675" y2="203" stroke="#C0392B" stroke-width="1" opacity="0.6"/>
  <line x1="746" y1="168" x2="763" y2="163" stroke="#C0392B" stroke-width="1" opacity="0.6"/>
  <line x1="748" y1="172" x2="783" y2="185" stroke="#C0392B" stroke-width="1" opacity="0.6"/>
  <line x1="747" y1="174" x2="770" y2="208" stroke="#C0392B" stroke-width="1" opacity="0.6"/>
  <line x1="737" y1="163" x2="718" y2="160" stroke="#C0392B" stroke-width="1" opacity="0.6"/>
  <line x1="737" y1="187" x2="756" y2="210" stroke="#C0392B" stroke-width="1" opacity="0.6"/>
  <!-- 특성 태그 -->
  <rect x="645" y="228" width="185" height="40" fill="white" rx="5" opacity="0.8"/>
  <text x="737" y="242" text-anchor="middle" font-size="9" fill="#2C3E50">모든 벡터와 거리 계산</text>
  <text x="737" y="256" text-anchor="middle" font-size="9" fill="#2C3E50">100% 정확도 / 대용량에서 느림</text>

  <!-- ===================== 중단: 성능 비교 바 차트 ===================== -->
  <rect x="20" y="290" width="820" height="150" fill="white" rx="8" stroke="#ECF0F1" stroke-width="1.5"/>
  <text x="430" y="314" text-anchor="middle" font-size="13" font-weight="bold" fill="#2C3E50">성능 지표 비교</text>

  <!-- 범례 레이블 -->
  <text x="40" y="338" font-size="10" fill="#7F8C8D" font-weight="bold">정확도</text>
  <text x="40" y="368" font-size="10" fill="#7F8C8D" font-weight="bold">메모리</text>
  <text x="40" y="398" font-size="10" fill="#7F8C8D" font-weight="bold">검색속도</text>
  <text x="40" y="428" font-size="10" fill="#7F8C8D" font-weight="bold">빌드속도</text>

  <!-- 구분선 -->
  <line x1="100" y1="298" x2="100" y2="432" stroke="#ECF0F1" stroke-width="1"/>

  <!-- HNSW 바 -->
  <text x="180" y="310" text-anchor="middle" font-size="10" fill="#2980B9" font-weight="bold">HNSW</text>
  <!-- 정확도: 95% -->
  <rect x="105" y="325" width="150" height="16" fill="#ECF0F1" rx="4"/>
  <rect x="105" y="325" width="143" height="16" fill="url(#nodeBlue)" rx="4"/>
  <text x="262" y="337" font-size="9" fill="#2C3E50">95%</text>
  <!-- 메모리: 높음 85% -->
  <rect x="105" y="355" width="150" height="16" fill="#ECF0F1" rx="4"/>
  <rect x="105" y="355" width="128" height="16" fill="url(#nodeBlue)" rx="4"/>
  <text x="262" y="367" font-size="9" fill="#2C3E50">높음</text>
  <!-- 검색속도: 빠름 90% -->
  <rect x="105" y="385" width="150" height="16" fill="#ECF0F1" rx="4"/>
  <rect x="105" y="385" width="135" height="16" fill="url(#nodeBlue)" rx="4"/>
  <text x="262" y="397" font-size="9" fill="#2C3E50">빠름</text>
  <!-- 빌드속도: 느림 30% -->
  <rect x="105" y="415" width="150" height="16" fill="#ECF0F1" rx="4"/>
  <rect x="105" y="415" width="45" height="16" fill="url(#nodeBlue)" rx="4"/>
  <text x="262" y="427" font-size="9" fill="#2C3E50">느림</text>

  <!-- IVF 바 -->
  <text x="380" y="310" text-anchor="middle" font-size="10" fill="#27AE60" font-weight="bold">IVF</text>
  <!-- 정확도: 80% -->
  <rect x="305" y="325" width="150" height="16" fill="#ECF0F1" rx="4"/>
  <rect x="305" y="325" width="120" height="16" fill="url(#nodeGreen)" rx="4"/>
  <text x="462" y="337" font-size="9" fill="#2C3E50">80%</text>
  <!-- 메모리: 중간 55% -->
  <rect x="305" y="355" width="150" height="16" fill="#ECF0F1" rx="4"/>
  <rect x="305" y="355" width="83" height="16" fill="url(#nodeGreen)" rx="4"/>
  <text x="462" y="367" font-size="9" fill="#2C3E50">중간</text>
  <!-- 검색속도: 중간 70% -->
  <rect x="305" y="385" width="150" height="16" fill="#ECF0F1" rx="4"/>
  <rect x="305" y="385" width="105" height="16" fill="url(#nodeGreen)" rx="4"/>
  <text x="462" y="397" font-size="9" fill="#2C3E50">중간</text>
  <!-- 빌드속도: 빠름 75% -->
  <rect x="305" y="415" width="150" height="16" fill="#ECF0F1" rx="4"/>
  <rect x="305" y="415" width="113" height="16" fill="url(#nodeGreen)" rx="4"/>
  <text x="462" y="427" font-size="9" fill="#2C3E50">빠름</text>

  <!-- PQ 바 -->
  <text x="580" y="310" text-anchor="middle" font-size="10" fill="#D35400" font-weight="bold">PQ</text>
  <!-- 정확도: 65% -->
  <rect x="505" y="325" width="150" height="16" fill="#ECF0F1" rx="4"/>
  <rect x="505" y="325" width="98" height="16" fill="url(#nodeOrange)" rx="4"/>
  <text x="662" y="337" font-size="9" fill="#2C3E50">65%</text>
  <!-- 메모리: 매우 낮음 15% -->
  <rect x="505" y="355" width="150" height="16" fill="#ECF0F1" rx="4"/>
  <rect x="505" y="355" width="23" height="16" fill="url(#nodeOrange)" rx="4"/>
  <text x="662" y="367" font-size="9" fill="#2C3E50">매우 낮음</text>
  <!-- 검색속도: 빠름 80% -->
  <rect x="505" y="385" width="150" height="16" fill="#ECF0F1" rx="4"/>
  <rect x="505" y="385" width="120" height="16" fill="url(#nodeOrange)" rx="4"/>
  <text x="662" y="397" font-size="9" fill="#2C3E50">빠름</text>
  <!-- 빌드속도: 중간 65% -->
  <rect x="505" y="415" width="150" height="16" fill="#ECF0F1" rx="4"/>
  <rect x="505" y="415" width="98" height="16" fill="url(#nodeOrange)" rx="4"/>
  <text x="662" y="427" font-size="9" fill="#2C3E50">중간</text>

  <!-- Flat 바 -->
  <text x="780" y="310" text-anchor="middle" font-size="10" fill="#C0392B" font-weight="bold">Flat</text>
  <!-- 정확도: 100% -->
  <rect x="705" y="325" width="150" height="16" fill="#ECF0F1" rx="4"/>
  <rect x="705" y="325" width="150" height="16" fill="url(#nodeRed)" rx="4"/>
  <text x="858" y="337" font-size="9" fill="#2C3E50">100%</text>
  <!-- 메모리: 높음 90% -->
  <rect x="705" y="355" width="150" height="16" fill="#ECF0F1" rx="4"/>
  <rect x="705" y="355" width="135" height="16" fill="url(#nodeRed)" rx="4"/>
  <text x="858" y="367" font-size="9" fill="#2C3E50">높음</text>
  <!-- 검색속도: 매우 느림 5% -->
  <rect x="705" y="385" width="150" height="16" fill="#ECF0F1" rx="4"/>
  <rect x="705" y="385" width="8" height="16" fill="url(#nodeRed)" rx="4"/>
  <text x="858" y="397" font-size="9" fill="#2C3E50">매우 느림</text>
  <!-- 빌드속도: 없음(N/A) -->
  <rect x="705" y="415" width="150" height="16" fill="#ECF0F1" rx="4"/>
  <rect x="705" y="415" width="150" height="16" fill="#BDC3C7" rx="4"/>
  <text x="858" y="427" font-size="9" fill="#2C3E50">N/A</text>

  <!-- ===================== 하단: 사용 시나리오 요약 테이블 ===================== -->
  <rect x="20" y="454" width="820" height="116" fill="white" rx="8" stroke="#ECF0F1" stroke-width="1.5"/>
  <text x="430" y="475" text-anchor="middle" font-size="12" font-weight="bold" fill="#2C3E50">권장 사용 시나리오</text>

  <!-- HNSW 시나리오 -->
  <rect x="30" y="483" width="190" height="78" fill="url(#bgBlue)" rx="6" stroke="#3498DB" stroke-width="1"/>
  <text x="125" y="498" text-anchor="middle" font-size="10" font-weight="bold" fill="#2980B9">HNSW</text>
  <text x="125" y="513" text-anchor="middle" font-size="9" fill="#2C3E50">고정확도 실시간 검색</text>
  <text x="125" y="528" text-anchor="middle" font-size="9" fill="#2C3E50">추천 시스템, 이미지 검색</text>
  <text x="125" y="543" text-anchor="middle" font-size="9" fill="#7F8C8D">메모리 여유 환경</text>
  <text x="125" y="554" text-anchor="middle" font-size="8" fill="#2980B9">ex) Pinecone, Weaviate</text>

  <!-- IVF 시나리오 -->
  <rect x="230" y="483" width="190" height="78" fill="url(#bgGreen)" rx="6" stroke="#2ECC71" stroke-width="1"/>
  <text x="325" y="498" text-anchor="middle" font-size="10" font-weight="bold" fill="#27AE60">IVF</text>
  <text x="325" y="513" text-anchor="middle" font-size="9" fill="#2C3E50">대규모 배치 검색</text>
  <text x="325" y="528" text-anchor="middle" font-size="9" fill="#2C3E50">문서 검색, 오프라인 분석</text>
  <text x="325" y="543" text-anchor="middle" font-size="9" fill="#7F8C8D">균형잡힌 성능 필요 환경</text>
  <text x="325" y="554" text-anchor="middle" font-size="8" fill="#27AE60">ex) FAISS IVFFlat</text>

  <!-- PQ 시나리오 -->
  <rect x="430" y="483" width="190" height="78" fill="url(#bgOrange)" rx="6" stroke="#E67E22" stroke-width="1"/>
  <text x="525" y="498" text-anchor="middle" font-size="10" font-weight="bold" fill="#D35400">PQ</text>
  <text x="525" y="513" text-anchor="middle" font-size="9" fill="#2C3E50">초대규모 메모리 절약</text>
  <text x="525" y="528" text-anchor="middle" font-size="9" fill="#2C3E50">수십억 벡터 저장</text>
  <text x="525" y="543" text-anchor="middle" font-size="9" fill="#7F8C8D">메모리 제약 환경</text>
  <text x="525" y="554" text-anchor="middle" font-size="8" fill="#D35400">ex) FAISS IVFPQ</text>

  <!-- Flat 시나리오 -->
  <rect x="630" y="483" width="200" height="78" fill="url(#bgRed)" rx="6" stroke="#E74C3C" stroke-width="1"/>
  <text x="730" y="498" text-anchor="middle" font-size="10" font-weight="bold" fill="#C0392B">Flat</text>
  <text x="730" y="513" text-anchor="middle" font-size="9" fill="#2C3E50">소규모 정확도 우선</text>
  <text x="730" y="528" text-anchor="middle" font-size="9" fill="#2C3E50">기준(Baseline) 측정</text>
  <text x="730" y="543" text-anchor="middle" font-size="9" fill="#7F8C8D">데이터 수만 건 이하</text>
  <text x="730" y="554" text-anchor="middle" font-size="8" fill="#C0392B">ex) FAISS IndexFlatL2</text>
</svg>
